<svg xmlns="http://www.w3.org/2000/svg" width="100%" height="100%" viewBox="0 0 41 41">
  <g fill="none" fill-rule="evenodd">
    <path stroke="#0072CE" stroke-width="2" d="M39,20 C39,9.51061808 30.4893819,1 20,1 C9.51061808,1 1,9.51061808 1,20 C1,30.4893819 9.51061808,39 20,39 C30.4893819,39 39,30.4893819 39,20 Z"/>
    <path fill="#0072CE" d="M27 32.1666667L27 28C27 27.53125 26.6445312 27.1666667 26.1875 27.1666667L23.75 27.1666667 23.75 13.8333333C23.75 13.3645833 23.3945312 13 22.9375 13L14.8125 13C14.3554688 13 14 13.3645833 14 13.8333333L14 18C14 18.46875 14.3554688 18.8333333 14.8125 18.8333333L17.25 18.8333333 17.25 27.1666667 14.8125 27.1666667C14.3554688 27.1666667 14 27.53125 14 28L14 32.1666667C14 32.6354167 14.3554688 33 14.8125 33L26.1875 33C26.6445312 33 27 32.6354167 27 32.1666667zM24 9.14285714L24 4.85714286C24 4.375 23.6171875 4 23.125 4L17.875 4C17.3828125 4 17 4.375 17 4.85714286L17 9.14285714C17 9.625 17.3828125 10 17.875 10L23.125 10C23.6171875 10 24 9.625 24 9.14285714z"/>
  </g>
</svg>
